#!OML:ASF H:\Dans Jumps\Project 1\Capture day 1\Session 1\subject.ASF
:FULLY-SPECIFIED
:DEGREES
224
root 0.61751 15.5477 -16.5549 22.5586 -0.875054 -1.90576
lowerback 22.6267 0.2179 -0.301394
upperback 12.0587 0.244398 1.69874
thorax 0.554149 0.0345941 1.93547
lowerneck -16.0982 0.895706 -0.955934
upperneck 14.6988 1.55311 -0.6383
head 7.15075 0.627045 0.114357
rclavicle -4.62174e-015 8.05078e-015
rhumerus -19.8572 -4.4939 -82.655
rradius 28.239
rwrist 23.2058
rhand -18.2163 -25.4829
rfingers 7.12502
rthumb 8.06159 -55.3092
lclavicle -4.62174e-015 8.05078e-015
lhumerus -19.2918 -10.0938 90.3821
lradius 23.5535
lwrist 18.4194
lhand -30.6336 -6.73641
lfingers 7.12502
lthumb -3.92931 23.2071
rfemur -65.2168 -5.1966 22.2563
rtibia 64.1924
rfoot -19.2648 -7.79774
rtoes 4.17552
lfemur -64.7598 8.18893 -22.7695
ltibia 63.8864
lfoot -18.4995 10.2339
ltoes 0.687591
225
root 0.616732 15.5347 -16.562 22.6218 -0.892096 -1.88855
lowerback 22.7107 0.221666 -0.313563
upperback 12.08 0.246868 1.698
thorax 0.536719 0.0350839 1.94137
lowerneck -16.0831 0.909068 -0.953118
upperneck 14.6392 1.57601 -0.674025
head 7.12906 0.635392 0.104429
rclavicle 9.44227e-016 2.08724e-015
rhumerus -19.8526 -4.42102 -82.6743
rradius 28.2538
rwrist 23.1564
rhand -18.1595 -25.4411
rfingers 7.12502
rthumb 8.11638 -55.2652
lclavicle 9.44227e-016 2.08724e-015
lhumerus -19.356 -10.2026 90.4521
lradius 23.546
lwrist 18.4544
lhand -30.5252 -6.60924
lfingers 7.12502
lthumb -3.82465 23.3362
rfemur -65.4199 -5.18195 22.2448
rtibia 64.3634
rfoot -19.299 -7.82072
rtoes 4.14169
lfemur -64.9595 8.18507 -22.804
ltibia 64.0523
lfoot -18.5269 10.2613
ltoes 0.663863
226
root 0.616054 15.5224 -16.5683 22.6693 -0.915351 -1.87573
lowerback 22.8024 0.226758 -0.323383
upperback 12.1027 0.251333 1.69606
thorax 0.517112 0.036675 1.94424
lowerneck -16.0841 0.920382 -0.95177
upperneck 14.5981 1.59548 -0.701761
head 7.1161 0.642556 0.0971236
rclavicle -3.52843e-015 3.55328e-015
rhumerus -19.8558 -4.34466 -82.6918
rradius 28.2857
rwrist 23.0954
rhand -18.0927 -25.3872
rfingers 7.12502
rthumb 8.18091 -55.2088
lclavicle -3.52843e-015 3.55328e-015
lhumerus -19.4301 -10.3212 90.5232
lradius 23.5489
lwrist 18.4927
lhand -30.4435 -6.53457
lfingers 7.12502
lthumb -3.74576 23.4123
rfemur -65.5974 -5.16481 22.2358
rtibia 64.5267
rfoot -19.3384 -7.83941
rtoes 4.11279
lfemur -65.135 8.1932 -22.8355
ltibia 64.2133
lfoot -18.5603 10.2866
ltoes 0.646807
227
root 0.615111 15.5101 -16.5745 22.7173 -0.941718 -1.86986
lowerback 22.8874 0.232965 -0.333747
upperback 12.122 0.257106 1.6965
thorax 0.497124 0.0388019 1.94965
lowerneck -16.094 0.932538 -0.947995
upperneck 14.5649 1.61561 -0.72891
head 7.10727 0.650133 0.0897595
rclavicle 5.91384e-015 9.98893e-015
rhumerus -19.8632 -4.26131 -82.7066
rradius 28.3241
rwrist 23.0201
rhand -18.0309 -25.3217
rfingers 7.12502
rthumb 8.2405 -55.141
lclavicle 5.91384e-015 9.98893e-015
lhumerus -19.513 -10.4367 90.5953
lradius 23.559
lwrist 18.5287
lhand -30.4046 -6.54607
lfingers 7.12502
lthumb -3.70814 23.4014
rfemur -65.7735 -5.14278 22.235
rtibia 64.6864
rfoot -19.3777 -7.85597
rtoes 4.09264
lfemur -65.3119 8.21157 -22.8619
ltibia 64.3743
lfoot -18.5949 10.3068
ltoes 0.637836
228
root 0.613982 15.4977 -16.5802 22.7632 -0.973342 -1.87373
lowerback 22.9641 0.238294 -0.344719
upperback 12.1407 0.261601 1.70039
thorax 0.480429 0.0400832 1.95935
lowerneck -16.1112 0.94426 -0.957122
upperneck 14.5367 1.63623 -0.744084
head 7.10109 0.658262 0.088503
rclavicle -5.41688e-015 -9.44227e-016
rhumerus -19.8701 -4.16118 -82.7189
rradius 28.3601
rwrist 22.938
rhand -17.9871 -25.243
rfingers 7.12502
rthumb 8.28281 -55.0606
lclavicle -5.41688e-015 -9.44227e-016
lhumerus -19.6032 -10.5324 90.6672
lradius 23.5745
lwrist 18.5552
lhand -30.4006 -6.62103
lfingers 7.12502
lthumb -3.7043 23.3265
rfemur -65.9442 -5.11424 22.2443
rtibia 64.843
rfoot -19.4177 -7.86866
rtoes 4.08092
lfemur -65.4858 8.24369 -22.8817
ltibia 64.5356
lfoot -18.6303 10.3259
ltoes 0.617489
229
root 0.612582 15.4853 -16.5854 22.8088 -1.00242 -1.88262
lowerback 23.0327 0.243567 -0.352189
upperback 12.1558 0.2667 1.70498
thorax 0.463802 0.0418315 1.96765
lowerneck -16.1224 0.954329 -0.965806
upperneck 14.5051 1.65301 -0.751588
head 7.09271 0.665347 0.0892166
rclavicle 2.6339e-015 9.51682e-015
rhumerus -19.882 -4.06489 -82.7313
rradius 28.3915
rwrist 22.8606
rhand -17.9599 -25.1687
rfingers 7.12502
rthumb 8.30906 -54.9853
lclavicle 2.6339e-015 9.51682e-015
lhumerus -19.7 -10.6218 90.7357
lradius 23.5927
lwrist 18.5721
lhand -30.3863 -6.67927
lfingers 7.12502
lthumb -3.69046 23.2685
rfemur -66.1132 -5.08682 22.2617
rtibia 64.999
rfoot -19.4581 -7.87869
rtoes 4.07534
lfemur -65.6596 8.2806 -22.8966
ltibia 64.698
lfoot -18.6667 10.3421
ltoes 0.588366
230
root 0.611056 15.4729 -16.5903 22.8571 -1.03016 -1.89267
lowerback 23.0864 0.247005 -0.359742
upperback 12.1677 0.269435 1.70897
thorax 0.450902 0.0424485 1.97582
lowerneck -16.1165 0.962346 -0.978534
upperneck 14.4619 1.66624 -0.751667
head 7.07752 0.671371 0.0924906
rclavicle -8.39865e-015 3.60297e-015
rhumerus -19.8962 -3.97242 -82.7459
rradius 28.4132
rwrist 22.8068
rhand -17.9572 -25.1199
rfingers 7.12502
rthumb 8.31166 -54.9364
lclavicle -8.39865e-015 3.60297e-015
lhumerus -19.8019 -10.6908 90.799
lradius 23.6096
lwrist 18.5753
lhand -30.3982 -6.75792
lfingers 7.12502
lthumb -3.70203 23.1897
rfemur -66.2841 -5.0637 22.2839
rtibia 65.1546
rfoot -19.4958 -7.88527
rtoes 4.06435
lfemur -65.8345 8.31953 -22.9113
ltibia 64.8594
lfoot -18.7025 10.3576
ltoes 0.551154
231
root 0.609422 15.4605 -16.5946 22.9041 -1.05462 -1.90379
lowerback 23.1296 0.249658 -0.361783
upperback 12.178 0.27215 1.71058
thorax 0.441344 0.0434186 1.97826
lowerneck -16.0902 0.966989 -0.987994
upperneck 14.4028 1.6728 -0.747103
head 7.05364 0.675043 0.0958581
rclavicle -8.29926e-015 -1.0461e-014
rhumerus -19.9145 -3.88567 -82.7658
rradius 28.4248
rwrist 22.7779
rhand -17.9998 -25.1183
rfingers 7.12502
rthumb 8.27054 -54.9364
lclavicle -8.29926e-015 -1.0461e-014
lhumerus -19.907 -10.7537 90.8554
lradius 23.6274
lwrist 18.5807
lhand -30.3278 -6.69554
lfingers 7.12502
lthumb -3.63402 23.2532
rfemur -66.4517 -5.04557 22.3101
rtibia 65.3091
rfoot -19.5305 -7.88866
rtoes 4.05282
lfemur -66.0052 8.35818 -22.924
ltibia 65.0191
lfoot -18.7387 10.3715
ltoes 0.510995
232
root 0.608007 15.4486 -16.5985 22.9401 -1.07609 -1.90268
lowerback 23.1715 0.249561 -0.369523
upperback 12.1891 0.27025 1.70698
thorax 0.433352 0.0420691 1.97937
lowerneck -16.06 0.973483 -0.99243
upperneck 14.343 1.6805 -0.741946
head 7.02889 0.679616 0.0986901
rclavicle -3.23025e-015 1.23246e-014
rhumerus -19.9391 -3.82752 -82.7872
rradius 28.4351
rwrist 22.7808
rhand -18.066 -25.1336
rfingers 7.12502
rthumb 8.20668 -54.9542
lclavicle -3.23025e-015 1.23246e-014
lhumerus -20.0135 -10.8001 90.9052
lradius 23.6429
lwrist 18.5944
lhand -30.2613 -6.61768
lfingers 7.12502
lthumb -3.56981 23.3322
rfemur -66.6047 -5.04338 22.3264
rtibia 65.4623
rfoot -19.566 -7.88307
rtoes 4.03858
lfemur -66.157 8.38996 -22.948
ltibia 65.174
lfoot -18.7783 10.3846
ltoes 0.48273
233
root 0.606573 15.4368 -16.6021 22.9728 -1.09206 -1.90189
lowerback 23.2079 0.24729 -0.371438
upperback 12.1988 0.266691 1.70143
thorax 0.426691 0.0402752 1.97542
lowerneck -16.0257 0.978998 -0.992242
upperneck 14.2778 1.6849 -0.732456
head 7.0017 0.683331 0.101778
rclavicle 9.44227e-016 -5.46658e-016
rhumerus -19.9655 -3.78928 -82.8097
rradius 28.4403
rwrist 22.7873
rhand -18.1367 -25.1574
rfingers 7.12502
rthumb 8.13836 -54.9807
lclavicle 9.44227e-016 -5.46658e-016
lhumerus -20.1177 -10.8346 90.9484
lradius 23.6496
lwrist 18.6159
lhand -30.2308 -6.57322
lfingers 7.12502
lthumb -3.54035 23.3771
rfemur -66.7513 -5.04884 22.3464
rtibia 65.6128
rfoot -19.5999 -7.8751
rtoes 4.01971
lfemur -66.3023 8.41713 -22.9686
ltibia 65.3256
lfoot -18.818 10.3955
ltoes 0.463398
234
root 0.605377 15.4257 -16.6051 22.9894 -1.10412 -1.90037
lowerback 23.2536 0.242722 -0.366711
upperback 12.2099 0.261482 1.69399
thorax 0.417183 0.0380629 1.96605
lowerneck -15.9955 0.983528 -0.994863
upperneck 14.2172 1.68697 -0.712691
head 6.97661 0.68665 0.108445
rclavicle 4.47266e-015 -4.17448e-015
rhumerus -19.9993 -3.77163 -82.829
rradius 28.4496
rwrist 22.7812
rhand -18.2016 -25.1751
rfingers 7.12502
rthumb 8.07581 -55.0008
lclavicle 4.47266e-015 -4.17448e-015
lhumerus -20.2204 -10.8572 90.9875
lradius 23.6452
lwrist 18.6415
lhand -30.2365 -6.56945
lfingers 7.12502
lthumb -3.54589 23.3808
rfemur -66.8732 -5.06359 22.3672
rtibia 65.7586
rfoot -19.6384 -7.86351
rtoes 3.99004
lfemur -66.4213 8.43941 -22.9851
ltibia 65.4722
lfoot -18.8632 10.4066
ltoes 0.463148
235
root 0.604161 15.4148 -16.6078 22.9998 -1.11114 -1.89883
lowerback 23.3005 0.236449 -0.359103
upperback 12.2211 0.254737 1.68717
thorax 0.407221 0.035224 1.95607
lowerneck -15.9836 0.987834 -0.989325
upperneck 14.1682 1.68846 -0.699758
head 6.95857 0.689342 0.111645
rclavicle 7.50412e-015 1.20762e-014
rhumerus -20.0356 -3.76974 -82.8429
rradius 28.4594
rwrist 22.7578
rhand -18.2588 -25.1597
rfingers 7.12502
rthumb 8.02052 -54.9875
lclavicle 7.50412e-015 1.20762e-014
lhumerus -20.315 -10.8615 91.0236
lradius 23.6244
lwrist 18.6685
lhand -30.2597 -6.593
lfingers 7.12502
lthumb -3.56823 23.3569
rfemur -66.9856 -5.08502 22.3909
rtibia 65.901
rfoot -19.6777 -7.85358
rtoes 3.95003
lfemur -66.5303 8.45567 -22.9967
ltibia 65.6161
lfoot -18.9094 10.4156
ltoes 0.478995
236
root 0.603078 15.4042 -16.6101 23.0056 -1.12283 -1.89854
lowerback 23.3454 0.22867 -0.357029
upperback 12.2315 0.245053 1.68254
thorax 0.39743 0.0305753 1.95223
lowerneck -15.983 0.992944 -0.99147
upperneck 14.1308 1.69341 -0.688295
head 6.94619 0.692984 0.116088
rclavicle 2.83268e-015 -2.23633e-016
rhumerus -20.0751 -3.76557 -82.8493
rradius 28.471
rwrist 22.715
rhand -18.2963 -25.1186
rfingers 7.12502
rthumb 7.98434 -54.9478
lclavicle 2.83268e-015 -2.23633e-016
lhumerus -20.4057 -10.8312 91.0588
lradius 23.5893
lwrist 18.6872
lhand -30.298 -6.63617
lfingers 7.12502
lthumb -3.60525 23.3131
rfemur -67.0899 -5.10508 22.415
rtibia 66.039
rfoot -19.7158 -7.84356
rtoes 3.89959
lfemur -66.6291 8.47215 -23.0054
ltibia 65.7569
lfoot -18.9564 10.4283
ltoes 0.497537
237
root 0.602044 15.3939 -16.6122 23.0044 -1.13678 -1.89685
lowerback 23.3941 0.222415 -0.358154
upperback 12.2404 0.236711 1.67779
thorax 0.384175 0.0264686 1.94981
lowerneck -15.9998 0.999044 -0.984423
upperneck 14.1097 1.69966 -0.686346
head 6.9422 0.696679 0.116244
rclavicle 4.99446e-015 3.05631e-015
rhumerus -20.1204 -3.77536 -82.849
rradius 28.4812
rwrist 22.6637
rhand -18.3259 -25.0478
rfingers 7.12502
rthumb 7.95583 -54.8781
lclavicle 4.99446e-015 3.05631e-015
lhumerus -20.4937 -10.7864 91.0924
lradius 23.5439
lwrist 18.7058
lhand -30.3134 -6.66673
lfingers 7.12502
lthumb -3.62007 23.2823
rfemur -67.184 -5.12519 22.4367
rtibia 66.1736
rfoot -19.7535 -7.83493
rtoes 3.84206
lfemur -66.7157 8.48607 -23.0127
ltibia 65.8941
lfoot -19.0028 10.446
ltoes 0.512095
